<svg id="Calque_4" data-name="Calque 4" xmlns="http://www.w3.org/2000/svg" viewBox="0 0 15.26 6.01"><defs><style>.cls-1,.cls-2{fill:#40eda3;}.cls-1{stroke:#40eda3;stroke-miterlimit:10;stroke-width:0.01px;}</style></defs><path class="cls-1" d="M14.68,10.23h-.5c-.79,0-1.87-.16-3.14-.34a.2.2,0,0,1-.16-.21.19.19,0,0,1,.22-.16c1.15.17,2.15.28,2.9.33a7.61,7.61,0,0,0,1.12,0,5.37,5.37,0,0,0-.65-.27C14,9.4,13.32,9.21,12.53,9a.18.18,0,0,1-.14-.22.2.2,0,0,1,.23-.14,21.94,21.94,0,0,1,2.13.64c.68.25.91.43.87.65s-.36.27-.51.28A2.75,2.75,0,0,1,14.68,10.23Zm.59-.29Z" transform="translate(-0.37 -4.99)"/><path class="cls-1" d="M11.15,8.39A.19.19,0,0,0,11,8.23c-.92-.21-1.9-.41-2.91-.6S6,7.25,5,7.11A3,3,0,0,1,7.85,5.37a3.37,3.37,0,0,1,1.37.29.2.2,0,0,0,.25-.09.19.19,0,0,0-.1-.25A3.73,3.73,0,0,0,7.85,5,3.37,3.37,0,0,0,4.64,7.06c-1.17-.16-2.16-.27-2.88-.3a6.18,6.18,0,0,0-.89,0c-.13,0-.45.05-.49.28s.24.44,1.09.73c.64.22,1.56.48,2.67.75a.2.2,0,0,0,.23-.14.18.18,0,0,0-.14-.22c-1-.24-1.85-.48-2.47-.68a6.58,6.58,0,0,1-.88-.35,6.73,6.73,0,0,1,1,0c.67,0,1.57.14,2.6.28A2.78,2.78,0,0,0,4.47,8a3.21,3.21,0,0,0,3.38,3A3.42,3.42,0,0,0,10,10.24a3.34,3.34,0,0,0,1.17-1.77A.22.22,0,0,0,11.15,8.39ZM9.74,10a3,3,0,0,1-1.89.68A2.84,2.84,0,0,1,4.84,8a2.33,2.33,0,0,1,.06-.53c1,.14,2,.32,3.12.52s1.85.37,2.71.56A3,3,0,0,1,9.74,10Z" transform="translate(-0.37 -4.99)"/><circle class="cls-2" cx="11.39" cy="3.62" r="0.31"/></svg>